# AST/ASF file generated using VICON BodyLanguage
# -----------------------------------------------
:version 1.10
:name VICON
:units
  mass 1.0
  length 0.45
  angle deg
:documentation
   .ast/.asf automatically generated from VICON data using
   VICON BodyBuilder and BodyLanguage model FoxedUp or BRILLIANT.MOD
:root
   order TX TY TZ RX RY RZ
   axis XYZ
   position 0 0 0  
   orientation 0 0 0 
:bonedata
  begin
     id 1 
     name lhipjoint
     direction 0.716248 -0.617586 0.324924 
     length 2.63557 
     axis 0 0 0  XYZ
  end
  begin
     id 2 
     name lfemur
     direction 0.34202 -0.939693 0  
     length 7.01235  
     axis 0 0 20  XYZ
    dof rx ry rz
    limits (-160.0 20.0)
           (-70.0 70.0)
           (-60.0 70.0)
  end
  begin
     id 3 
     name ltibia
     direction 0.34202 -0.939693 0   
     length 8.14348   
     axis 0 0 20   XYZ
    dof rx
    limits (-10.0 170.0)
  end
  begin
     id 4 
     name lfoot
     direction 0.0982064 -0.26982 0.95789   
     length 1.99077   
     axis -90 7.62852e-016 20   XYZ
    dof rx rz
    limits (-45.0 90.0)
           (-70.0 20.0)
  end
  begin
     id 5 
     name ltoes
     direction 1.53511e-011 -4.21891e-011 1   
     length 0.99735   
     axis -90 7.62852e-016 20   XYZ
    dof rx
    limits (-90.0 20.0)
  end
  begin
     id 6 
     name rhipjoint
     direction -0.687828 -0.642391 0.337975   
     length 2.5338  
     axis 0 0 0  XYZ 
  end
  begin
     id 7 
     name rfemur
     direction -0.34202 -0.939693 0   
     length 6.90199   
     axis 0 0 -20   XYZ
    dof rx ry rz
    limits (-160.0 20.0)
           (-70.0 70.0)
           (-70.0 60.0)
  end
  begin
     id 8 
     name rtibia
     direction -0.34202 -0.939693 0   
     length 8.07725   
     axis 0 0 -20   XYZ
    dof rx
    limits (-10.0 170.0)
 end
 begin
     id 9 
     name rfoot
     direction -0.0912384 -0.250675 0.963762   
     length 2.11621  
     axis -90 -7.62852e-016 -20   XYZ
    dof rx rz
    limits (-45.0 90.0)
           (-20.0 70.0)
  end
  begin
     id 10 
     name rtoes
     direction -1.5359e-011 -4.21894e-011 1   
     length 1.06031   
     axis -90 -7.62852e-016 -20   XYZ
    dof rx
    limits (-90.0 20.0)
  end
  begin
     id 11 
     name lowerback
     direction -0.0403572 0.987953 -0.149396   
     length 2.05637   
     axis 0 0 0   XYZ
    dof rx ry rz
    limits (-20.0 45.0)
           (-30.0 30.0)
           (-30.0 30.0)
  end
  begin
     id 12 
     name upperback
     direction -0.00512151 0.997598 0.0690792   
     length 2.01086   
     axis 0 0 0   XYZ
    dof rx ry rz
    limits (-20.0 45.0)
           (-30.0 30.0)
           (-30.0 30.0)
  end
  begin
     id 13 
     name thorax
     direction 0.0136133 0.989392 0.14463   
     length 2.09035   
     axis 0 0 0   XYZ
    dof rx ry rz
    limits (-20.0 45.0)
           (-30.0 30.0)
           (-30.0 30.0)
  end
  begin
     id 14 
     name lowerneck
     direction 0.0250714 0.992811 0.11704   
     length 1.70806   
     axis 0 0 0   XYZ
    dof rx ry rz
    limits (-20.0 45.0)
           (-30.0 30.0)
           (-30.0 30.0)
  end
  begin
     id 15 
     name upperneck
     direction -0.0519205 0.998394 -0.0226787   
     length 1.6689   
     axis 0 0 0   XYZ
    dof rx ry rz
    limits (-20.0 45.0)
           (-30.0 30.0)
           (-30.0 30.0)
  end
  begin
     id 16
     name head
     direction -0.0201693 0.999547 -0.0223192  
     length 1.83412  
     axis 0 0 0   XYZ
    dof rx ry rz
    limits (-20.0 45.0)
           (-30.0 30.0)
           (-30.0 30.0)
  end
  begin
     id 17 
     name lclavicle
     direction 0.89585 0.444077 -0.0157448  
     length 3.39587  
     axis 0 0 0   XYZ
    dof ry rz
    limits (-20.0 10.0)
           (0.0 20.0)
  end
  begin
     id 18 
     name lhumerus
     direction 1 -4.48956e-011 1.99132e-028   
     length 5.79199   
     axis 180 -30 -90   XYZ
    dof rx ry rz
    limits (-60.0 90.0)
           (-90.0 90.0)
           (-90.0 90.0)
  end
  begin
     id 19
     name lradius
     direction 1 -4.48974e-011 8.72912e-028   
     length 3.49908   
     axis 180 -30 -90   XYZ
    dof rx
    limits (-10.0 170.0)
  end
  begin
     id 20
     name lwrist
     direction 1 -4.48994e-011 4.76442e-027   
     length 1.74954   
     axis -3.27502e-015 90 90   XYZ
    dof ry
    limits (-180.0 0.0)
 end
  begin
     id 21 
     name lhand
     direction 1 -4.48945e-011 9.531e-027   
     length 0.593861   
     axis -6.08098e-015 90 90   XYZ
    dof rx rz
    limits (-90.0 90.0)
           (-45.0 45.0)
  end
  begin
     id 22 
     name lfingers
     direction 1 -4.48945e-011 1.9062e-026   
     length 0.478786   
     axis -1.21619e-014 90 90   XYZ
    dof rx
    limits (0.0 90.0)
  end
  begin
     id 23
     name lthumb
     direction 0.707107 -6.34904e-011 0.707107   
     length 0.687444   
     axis -90 45 -9.86923e-015   XYZ
    dof rx rz
    limits (-45.0 45.0)
           (-45.0 45.0)
  end
  begin
     id 24 
     name rclavicle
     direction -0.940466 0.338394 0.0318182   
     length 3.51226  
     axis 0 0 0   XYZ 
    dof ry rz
    limits (-10.0 20.0)
           (-20.0 0.0)
  end
  begin
     id 25 
     name rhumerus
     direction -1 -4.48976e-011 2.0905e-027  
     length 5.73799   
     axis 180 30 90   XYZ
    dof rx ry rz
    limits (-90.0 60.0)
           (-90.0 90.0)
           (-90.0 90.0)
  end
  begin
     id 26 
     name rradius
     direction -1 -4.48968e-011 -9.39692e-029   
     length 3.57916   
     axis 180 30 90   XYZ
    dof rx
    limits (-10.0 170.0)
  end
  begin
     id 27 
     name rwrist
     direction -1 -4.48959e-011 4.7652e-027   
     length 1.78958   
     axis -3.27502e-015 -90 -90   XYZ
    dof ry
    limits (-180.0 0.0)
  end
  begin
     id 28
     name rhand
     direction -1 -4.49042e-011 9.5267e-027   
     length 0.615577   
     axis -6.08098e-015 -90 -90   XYZ
    dof rx rz
    limits (-90.0 90.0)
           (-45.0 45.0)
  end
  begin
     id 29
     name rfingers
     direction -1 -4.48935e-011 1.90629e-026   
     length 0.496294   
     axis -1.21619e-014 -90 -90   XYZ
    dof rx
    limits (0.0 90.0)
  end
  begin
     id 30
     name rthumb
     direction -0.707107 -6.34977e-011 0.707107   
     length 0.712582   
     axis -90 -45 9.86923e-015   XYZ
    dof rx rz
    limits (-45.0 45.0)
           (-45.0 45.0)
  end
:hierarchy
  begin
    root lhipjoint rhipjoint lowerback
    lhipjoint lfemur
    lfemur ltibia
    ltibia lfoot
    lfoot ltoes
    rhipjoint rfemur
    rfemur rtibia
    rtibia rfoot
    rfoot rtoes
    lowerback upperback
    upperback thorax
    thorax lowerneck lclavicle rclavicle
    lowerneck upperneck
    upperneck head
    lclavicle lhumerus
    lhumerus lradius
    lradius lwrist
    lwrist lhand lthumb
    lhand lfingers
    rclavicle rhumerus
    rhumerus rradius
    rradius rwrist
    rwrist rhand rthumb
    rhand rfingers
  end

#!OML:ASF H:\Terrain\Patient Classification 1\PaulMetrics\March17Take5\PaulMetrics.ASF
:FULLY-SPECIFIED
:DEGREES
1
root 16.4424 16.9589 -25.5807 1.15474 -43.4038 5.06004
lowerback 4.3776 1.39192 -6.41319
upperback -5.24248 1.32514 0.170382
thorax -8.1625 1.02528 3.627
lowerneck -5.65459 5.63537 3.76488
upperneck 8.30886 7.94787 -7.87451
head 3.87248 3.67613 -2.58644
rclavicle -1.30192e-013 -2.94201e-014
rhumerus -49.2963 18.5689 -90.1343
rradius 44.1531
rwrist -4.01906
rhand -13.7466 -29.4326
rfingers 7.12502
rthumb 12.3735 -59.0464
lclavicle -1.30192e-013 -2.94201e-014
lhumerus -35.0942 2.8559 81.3027
lradius 29.9043
lwrist 16.046
lhand -12.3765 -23.8908
lfingers 7.12502
lthumb 13.6942 5.6386
rfemur -15.1486 13.4033 13.0007
rtibia 32.5127
rfoot -27.5028 -22.2711
rtoes 9.57935
lfemur -16.8313 -5.96445 -19.9162
ltibia 33.5181
lfoot -24.0172 8.13565
ltoes -0.819256
2
root 16.4443 16.955 -25.5729 1.37188 -43.3168 4.69655
lowerback 4.1394 1.34691 -6.0595
upperback -5.04939 1.31945 0.182349
thorax -7.79825 0.988304 3.4481
lowerneck -5.87978 5.6394 3.71935
upperneck 8.24371 7.92891 -7.65841
head 3.8785 3.6723 -2.50909
rclavicle -3.69491e-014 5.96354e-015
rhumerus -49.0732 18.4179 -90.076
rradius 44.1099
rwrist -4.0785
rhand -13.9113 -29.3309
rfingers 7.12502
rthumb 12.2146 -58.9542
lclavicle -3.69491e-014 5.96354e-015
lhumerus -34.9427 2.89577 81.2662
lradius 30.0142
lwrist 15.9644
lhand -12.2697 -23.8821
lfingers 7.12502
lthumb 13.7971 5.64041
rfemur -14.9501 13.0629 13.2872
rtibia 32.3022
rfoot -27.275 -22.2013
rtoes 8.14296
lfemur -16.8572 -6.0106 -19.6598
ltibia 33.6827
lfoot -24.4311 8.27317
ltoes -2.31562
3
root 16.4422 16.951 -25.5664 1.38088 -43.2944 4.75573
lowerback 4.07079 1.29588 -6.14155
upperback -5.09181 1.24823 0.197145
thorax -7.79981 0.95928 3.51861
lowerneck -5.79506 5.63859 3.70745
upperneck 8.15852 7.92104 -7.61762
head 3.83601 3.67382 -2.49864
rclavicle 3.29237e-015 -3.97569e-016
rhumerus -49.2595 18.5302 -90.1251
rradius 44.1209
rwrist -4.2449
rhand -13.9157 -29.344
rfingers 7.12502
rthumb 12.2104 -58.9676
lclavicle 3.29237e-015 -3.97569e-016
lhumerus -35.1737 3.72331 81.0443
lradius 29.9522
lwrist 15.1219
lhand -11.8782 -24.278
lfingers 7.12502
lthumb 14.1744 5.21839
rfemur -14.8621 12.886 13.1982
rtibia 32.0047
rfoot -27.2643 -21.9348
rtoes 10.2995
lfemur -17.0235 -5.96371 -19.7072
ltibia 33.9579
lfoot -24.8158 8.3625
ltoes -4.20241
4
root 16.4406 16.9515 -25.5684 1.83715 -43.2294 4.24701
lowerback 4.08542 1.26797 -5.87841
upperback -5.18301 1.23498 0.312584
thorax -7.89925 0.946245 3.49357
lowerneck -5.68592 5.63019 3.84071
upperneck 8.06431 7.90195 -7.70328
head 3.79689 3.66905 -2.55107
rclavicle -3.39301e-014 -1.98785e-016
rhumerus -49.438 18.4026 -90.1118
rradius 44.1348
rwrist -4.32494
rhand -14.1428 -29.6291
rfingers 7.12502
rthumb 11.9914 -59.2656
lclavicle -3.39301e-014 -1.98785e-016
lhumerus -35.3915 4.24044 80.8365
lradius 29.983
lwrist 14.4904
lhand -11.2797 -24.4632
lfingers 7.12502
lthumb 14.7511 4.99191
rfemur -14.9264 13.0612 13.5966
rtibia 31.9075
rfoot -27.3836 -21.9241
rtoes 12.6705
lfemur -17.2733 -5.9286 -19.243
ltibia 34.0349
lfoot -24.7701 7.52858
ltoes 1.33611
5
root 16.4393 16.9449 -25.569 2.23863 -43.122 3.74087
lowerback 4.01581 1.18794 -5.593
upperback -5.14932 1.16449 0.436043
thorax -7.80721 0.896498 3.47332
lowerneck -5.82118 5.75001 3.84256
upperneck 8.14693 8.05144 -7.54181
head 3.84656 3.74589 -2.48833
rclavicle -5.75854e-014 5.96354e-016
rhumerus -49.2874 18.1513 -89.9279
rradius 44.0107
rwrist -3.98784
rhand -14.1611 -29.9603
rfingers 7.12502
rthumb 11.9738 -59.5978
lclavicle -5.75854e-014 5.96354e-016
lhumerus -35.4866 4.40666 80.7696
lradius 30.1509
lwrist 14.3655
lhand -11.058 -24.1804
lfingers 7.12502
lthumb 14.9646 5.25897
rfemur -14.9596 13.209 14.0157
rtibia 31.938
rfoot -27.4503 -22.0541
rtoes 13.3366
lfemur -17.4158 -6.07692 -18.812
ltibia 33.9695
lfoot -24.8748 6.90808
ltoes 7.33251
6
root 16.4368 16.9478 -25.5629 1.68341 -43.1378 4.47139
lowerback 3.98334 1.12087 -6.11672
upperback -5.0689 1.0305 0.314955
thorax -7.70134 0.851779 3.65536
lowerneck -5.73671 5.82897 3.78221
upperneck 7.93681 8.1498 -7.52097
head 3.77152 3.79976 -2.47116
rclavicle -9.60378e-015 -8.15017e-015
rhumerus -49.0434 18.076 -89.7914
rradius 43.7528
rwrist -3.58888
rhand -13.8217 -30.0719
rfingers 7.12502
rthumb 12.301 -59.6901
lclavicle -9.60378e-015 -8.15017e-015
lhumerus -35.5693 5.18457 80.5131
lradius 30.0837
lwrist 13.7306
lhand -11.1933 -24.1676
lfingers 7.12502
lthumb 14.8343 5.28141
rfemur -14.8342 13.2751 13.3842
rtibia 31.8745
rfoot -27.8437 -21.7459
rtoes 15.3348
lfemur -17.3034 -6.26888 -19.4462
ltibia 33.9696
lfoot -25.0676 7.10983
ltoes 7.5103
7
root 16.432 16.958 -25.557 1.25442 -43.1932 5.08896
lowerback 3.87772 1.13688 -6.53027
upperback -4.9909 1.01988 0.154217
thorax -7.56417 0.858374 3.7205
lowerneck -5.6074 5.75784 3.65231
upperneck 7.62794 8.03656 -7.39472
head 3.63983 3.75521 -2.42678
rclavicle 5.08143e-014 2.18663e-014
rhumerus -48.8469 17.8708 -89.7048
rradius 43.5304
rwrist -3.51953
rhand -14.3868 -30.3582
rfingers 7.12502
rthumb 11.7561 -60.0083
lclavicle 5.08143e-014 2.18663e-014
lhumerus -35.6378 5.31595 80.452
lradius 30.1301
lwrist 13.6643
lhand -11.3383 -24.247
lfingers 7.12502
lthumb 14.6946 5.21221
rfemur -14.7738 13.4057 12.8381
rtibia 31.821
rfoot -28.2078 -21.4908
rtoes 16.7881
lfemur -17.3918 -6.1009 -20.0034
ltibia 33.9927
lfoot -24.9742 7.36416
ltoes 7.34722
8
root 16.4324 16.9656 -25.5539 2.03806 -43.1492 4.01045
lowerback 3.8179 1.11491 -5.674
upperback -4.91748 1.07282 0.31067
thorax -7.43041 0.837488 3.40073
lowerneck -5.61545 5.67512 3.60856
upperneck 7.09779 7.87647 -7.11472
head 3.83402 3.71294 -2.60994
rclavicle -2.35436e-014 -6.16232e-015
rhumerus -48.6391 17.5267 -89.5901
rradius 43.3884
rwrist -3.47775
rhand -15.6012 -31.2382
rfingers 7.12502
rthumb 10.5849 -60.9516
lclavicle -2.35436e-014 -6.16232e-015
lhumerus -35.6935 4.72924 80.6942
lradius 30.3848
lwrist 14.3542
lhand -11.5626 -23.9257
lfingers 7.12502
lthumb 14.4785 5.54916
rfemur -14.759 13.342 13.7494
rtibia 31.7731
rfoot -27.8202 -21.9107
rtoes 14.6733
lfemur -17.8264 -5.36149 -19.2528
ltibia 34.0406
lfoot -24.063 8.46524
ltoes 0.405125
9
root 16.4425 16.9428 -25.5555 2.72398 -43.0842 3.05363
lowerback 3.82279 1.0594 -4.94687
upperback -4.85841 1.0645 0.46418
thorax -7.3489 0.795982 3.15544
lowerneck -5.72561 5.67214 3.85739
upperneck 7.01835 7.86169 -7.31656
head 3.85283 3.70381 -2.72409
rclavicle -5.81694e-014 -9.54166e-015
rhumerus -48.4705 17.314 -89.532
rradius 43.2722
rwrist -3.35368
rhand -15.5325 -31.5247
rfingers 7.12502
rthumb 10.6512 -61.2348
lclavicle -5.81694e-014 -9.54166e-015
lhumerus -35.6839 4.7623 80.6444
lradius 30.4292
lwrist 14.4178
lhand -11.6064 -23.7193
lfingers 7.12502
lthumb 14.4363 5.75854
rfemur -14.8309 13.1209 14.5324
rtibia 31.7826
rfoot -27.3008 -22.2634
rtoes 11.3269
lfemur -17.6625 -5.96712 -18.3578
ltibia 34.0591
lfoot -24.8481 7.2195
ltoes 6.96654
10
root 16.4387 16.9339 -25.5563 2.13358 -43.1871 3.93082
lowerback 3.72053 1.04648 -5.69909
upperback -4.79582 0.988436 0.28578
thorax -7.23374 0.78901 3.39958
lowerneck -5.75452 5.5928 3.90405
upperneck 7.24606 7.78494 -7.61722
head 3.55344 3.6327 -2.54915
rclavicle -2.65874e-015 4.57205e-015
rhumerus -48.3544 17.2475 -89.5378
rradius 43.113
rwrist -3.20562
rhand -14.4111 -30.748
rfingers 7.12502
rthumb 11.7327 -60.3994
lclavicle -2.65874e-015 4.57205e-015
lhumerus -35.7365 5.00152 80.4372
lradius 30.3681
lwrist 14.2026
lhand -11.6167 -24.2065
lfingers 7.12502
lthumb 14.4263 5.27207
rfemur -14.8032 13.2859 13.8155
rtibia 31.6412
rfoot -27.5779 -22.2351
rtoes 10.683
lfemur -17.5767 -6.29442 -19.0357
ltibia 34.2069
lfoot -24.995 7.99821
ltoes 0.877894
11
root 16.4317 16.9365 -25.5548 1.3132 -43.1988 5.03204
lowerback 3.68253 1.04203 -6.5276
upperback -4.72065 0.91049 0.0162548
thorax -7.14225 0.781355 3.58933
lowerneck -5.80122 5.61884 3.84443
upperneck 7.04178 7.77413 -7.12299
head 3.85766 3.66624 -2.65831
rclavicle 1.63749e-014 -5.56597e-015
rhumerus -48.1767 16.9589 -89.4811
rradius 42.8162
rwrist -3.06155
rhand -13.6836 -30.239
rfingers 7.12502
rthumb 12.4342 -59.8492
lclavicle 1.63749e-014 -5.56597e-015
lhumerus -35.8196 5.16952 80.2418
lradius 30.3433
lwrist 13.9437
lhand -11.948 -24.4457
lfingers 7.12502
lthumb 14.1071 5.05547
rfemur -14.6796 13.4695 12.9551
rtibia 31.5879
rfoot -27.8794 -22.2902
rtoes 11.1189
lfemur -17.6023 -6.22617 -19.9658
ltibia 34.2925
lfoot -24.7443 8.9422
ltoes -4.85742
